<mxfile host="app.diagrams.net" modified="2021-06-30T05:40:37.470Z" agent="5.0 (Windows NT 10.0; Win64; x64) AppleWebKit/537.36 (KHTML, like Gecko) Chrome/91.0.4472.114 Safari/537.36" etag="-gPosTAvKf46oP-jtT4U" version="14.8.2" type="github">
  <diagram id="Bx64JOV9-RdEquzqMTeV" name="Page-1">
    <mxGraphModel dx="782" dy="436" grid="1" gridSize="10" guides="1" tooltips="1" connect="1" arrows="1" fold="1" page="1" pageScale="1" pageWidth="850" pageHeight="1100" math="0" shadow="0">
      <root>
        <mxCell id="0" />
        <mxCell id="1" parent="0" />
        <mxCell id="HkrRJqIbS6xRMX9JK_8d-1" value="" style="swimlane;startSize=0;" vertex="1" parent="1">
          <mxGeometry x="160" y="130" width="600" height="260" as="geometry" />
        </mxCell>
        <mxCell id="HkrRJqIbS6xRMX9JK_8d-7" style="edgeStyle=orthogonalEdgeStyle;rounded=0;orthogonalLoop=1;jettySize=auto;html=1;entryX=1;entryY=0;entryDx=0;entryDy=52.5;entryPerimeter=0;" edge="1" parent="HkrRJqIbS6xRMX9JK_8d-1" source="HkrRJqIbS6xRMX9JK_8d-2" target="HkrRJqIbS6xRMX9JK_8d-5">
          <mxGeometry relative="1" as="geometry" />
        </mxCell>
        <mxCell id="HkrRJqIbS6xRMX9JK_8d-2" value="Payments Dashobard Service&lt;br&gt;[Container: Sprint Boot]" style="rounded=0;whiteSpace=wrap;html=1;fillColor=#dae8fc;strokeColor=#6c8ebf;" vertex="1" parent="HkrRJqIbS6xRMX9JK_8d-1">
          <mxGeometry x="370" y="100" width="120" height="60" as="geometry" />
        </mxCell>
        <mxCell id="HkrRJqIbS6xRMX9JK_8d-5" value="&lt;span&gt;Payments Dashboard Database&lt;/span&gt;" style="shape=cylinder3;whiteSpace=wrap;html=1;boundedLbl=1;backgroundOutline=1;size=15;fillColor=#dae8fc;strokeColor=#6c8ebf;" vertex="1" parent="HkrRJqIbS6xRMX9JK_8d-1">
          <mxGeometry x="235" y="160" width="60" height="80" as="geometry" />
        </mxCell>
        <mxCell id="HkrRJqIbS6xRMX9JK_8d-6" style="edgeStyle=orthogonalEdgeStyle;rounded=0;orthogonalLoop=1;jettySize=auto;html=1;entryX=0.5;entryY=0;entryDx=0;entryDy=0;" edge="1" parent="HkrRJqIbS6xRMX9JK_8d-1" source="HkrRJqIbS6xRMX9JK_8d-3" target="HkrRJqIbS6xRMX9JK_8d-2">
          <mxGeometry relative="1" as="geometry" />
        </mxCell>
        <mxCell id="HkrRJqIbS6xRMX9JK_8d-3" value="Payments Dashboard Web&lt;br&gt;[Container: Angular]" style="rounded=0;whiteSpace=wrap;html=1;fillColor=#dae8fc;strokeColor=#6c8ebf;" vertex="1" parent="HkrRJqIbS6xRMX9JK_8d-1">
          <mxGeometry x="175" y="20" width="120" height="60" as="geometry" />
        </mxCell>
        <mxCell id="HkrRJqIbS6xRMX9JK_8d-8" value="Payments Dashboard Application" style="text;html=1;strokeColor=none;fillColor=none;align=center;verticalAlign=middle;whiteSpace=wrap;rounded=0;" vertex="1" parent="HkrRJqIbS6xRMX9JK_8d-1">
          <mxGeometry x="10" y="230" width="130" height="20" as="geometry" />
        </mxCell>
        <mxCell id="HkrRJqIbS6xRMX9JK_8d-9" value="Messaging System&lt;br&gt;[Container: Kafka]" style="rounded=1;whiteSpace=wrap;html=1;fillColor=#dae8fc;strokeColor=#6c8ebf;" vertex="1" parent="1">
          <mxGeometry x="160" y="30" width="600" height="60" as="geometry" />
        </mxCell>
      </root>
    </mxGraphModel>
  </diagram>
</mxfile>
